<svg width="1192" height="127" viewBox="0 0 1192 127" fill="none" xmlns="http://www.w3.org/2000/svg">
<path d="M0.045455 6.90909H27.9091L51.5455 64.5455H52.6364L76.2727 6.90909H104.136V100H82.2273V42.8182H81.4546L59.0909 99.4091H45.0909L22.7273 42.5H21.9545V100H0.045455V6.90909ZM150.761 101.318C143.428 101.318 137.125 99.8182 131.852 96.8182C126.61 93.7879 122.564 89.5758 119.716 84.1818C116.898 78.7576 115.489 72.4697 115.489 65.3182C115.489 58.1364 116.898 51.8485 119.716 46.4545C122.564 41.0303 126.61 36.8182 131.852 33.8182C137.125 30.7879 143.428 29.2727 150.761 29.2727C158.095 29.2727 164.383 30.7879 169.625 33.8182C174.898 36.8182 178.943 41.0303 181.761 46.4545C184.61 51.8485 186.034 58.1364 186.034 65.3182C186.034 72.4697 184.61 78.7576 181.761 84.1818C178.943 89.5758 174.898 93.7879 169.625 96.8182C164.383 99.8182 158.095 101.318 150.761 101.318ZM150.898 84.5455C153.564 84.5455 155.822 83.7273 157.67 82.0909C159.519 80.4545 160.928 78.1818 161.898 75.2727C162.898 72.3636 163.398 69 163.398 65.1818C163.398 61.303 162.898 57.9091 161.898 55C160.928 52.0909 159.519 49.8182 157.67 48.1818C155.822 46.5455 153.564 45.7273 150.898 45.7273C148.14 45.7273 145.807 46.5455 143.898 48.1818C142.019 49.8182 140.58 52.0909 139.58 55C138.61 57.9091 138.125 61.303 138.125 65.1818C138.125 69 138.61 72.3636 139.58 75.2727C140.58 78.1818 142.019 80.4545 143.898 82.0909C145.807 83.7273 148.14 84.5455 150.898 84.5455ZM222.92 101C217.769 101 213.087 99.6667 208.875 97C204.663 94.3333 201.299 90.3333 198.784 85C196.269 79.6667 195.011 73.0455 195.011 65.1364C195.011 56.9242 196.314 50.1667 198.92 44.8636C201.527 39.5606 204.936 35.6364 209.148 33.0909C213.39 30.5455 217.951 29.2727 222.83 29.2727C226.496 29.2727 229.633 29.9091 232.239 31.1818C234.845 32.4242 236.996 34.0303 238.693 36C240.39 37.9697 241.678 40.0151 242.557 42.1364H243.011V6.90909H265.239V100H243.239V88.6818H242.557C241.617 90.8333 240.284 92.8485 238.557 94.7273C236.83 96.6061 234.663 98.1212 232.057 99.2727C229.481 100.424 226.436 101 222.92 101ZM230.648 83.6818C233.345 83.6818 235.648 82.9242 237.557 81.4091C239.466 79.8636 240.936 77.697 241.966 74.9091C242.996 72.1212 243.511 68.8485 243.511 65.0909C243.511 61.2727 242.996 57.9848 241.966 55.2273C240.966 52.4697 239.496 50.3485 237.557 48.8636C235.648 47.3788 233.345 46.6364 230.648 46.6364C227.89 46.6364 225.557 47.3939 223.648 48.9091C221.739 50.4242 220.284 52.5606 219.284 55.3182C218.314 58.0758 217.83 61.3333 217.83 65.0909C217.83 68.8485 218.33 72.1212 219.33 74.9091C220.33 77.697 221.769 79.8636 223.648 81.4091C225.557 82.9242 227.89 83.6818 230.648 83.6818ZM311.932 101.318C304.629 101.318 298.326 99.8788 293.023 97C287.75 94.0909 283.689 89.9545 280.841 84.5909C278.023 79.197 276.614 72.7879 276.614 65.3636C276.614 58.1515 278.038 51.8485 280.886 46.4545C283.735 41.0303 287.75 36.8182 292.932 33.8182C298.114 30.7879 304.22 29.2727 311.25 29.2727C316.22 29.2727 320.765 30.0455 324.886 31.5909C329.008 33.1364 332.568 35.4242 335.568 38.4545C338.568 41.4848 340.902 45.2273 342.568 49.6818C344.235 54.1061 345.068 59.1818 345.068 64.9091V70.4545H284.386V57.5455H324.386C324.356 55.1818 323.795 53.0758 322.705 51.2273C321.614 49.3788 320.114 47.9394 318.205 46.9091C316.326 45.8485 314.159 45.3182 311.705 45.3182C309.22 45.3182 306.992 45.8788 305.023 47C303.053 48.0909 301.492 49.5909 300.341 51.5C299.189 53.3788 298.583 55.5151 298.523 57.9091V71.0455C298.523 73.8939 299.083 76.3939 300.205 78.5455C301.326 80.6667 302.917 82.3182 304.977 83.5C307.038 84.6818 309.492 85.2727 312.341 85.2727C314.311 85.2727 316.098 85 317.705 84.4545C319.311 83.9091 320.689 83.1061 321.841 82.0455C322.992 80.9848 323.856 79.6818 324.432 78.1364L344.841 78.7273C343.992 83.303 342.129 87.2879 339.25 90.6818C336.402 94.0455 332.659 96.6667 328.023 98.5455C323.386 100.394 318.023 101.318 311.932 101.318ZM356.42 100V30.1818H378.011V42.9091H378.739C380.011 38.303 382.087 34.8788 384.966 32.6364C387.845 30.3636 391.193 29.2273 395.011 29.2273C396.042 29.2273 397.102 29.303 398.193 29.4545C399.284 29.5758 400.299 29.7727 401.239 30.0455V49.3636C400.178 49 398.784 48.7121 397.057 48.5C395.36 48.2879 393.845 48.1818 392.511 48.1818C389.875 48.1818 387.496 48.7727 385.375 49.9545C383.284 51.1061 381.633 52.7273 380.42 54.8182C379.239 56.8788 378.648 59.303 378.648 62.0909V100H356.42ZM432.523 60.1818V100H410.295V30.1818H431.432V43H432.205C433.75 38.7273 436.386 35.3788 440.114 32.9545C443.841 30.5 448.28 29.2727 453.432 29.2727C458.341 29.2727 462.598 30.3788 466.205 32.5909C469.841 34.7727 472.659 37.8333 474.659 41.7727C476.689 45.6818 477.689 50.2576 477.659 55.5V100H455.432V59.8636C455.462 55.9848 454.477 52.9545 452.477 50.7727C450.508 48.5909 447.765 47.5 444.25 47.5C441.917 47.5 439.856 48.0152 438.068 49.0455C436.311 50.0455 434.947 51.4848 433.977 53.3636C433.038 55.2424 432.553 57.5151 432.523 60.1818ZM580.011 37.3182C579.496 35.4091 578.739 33.7273 577.739 32.2727C576.739 30.7879 575.511 29.5303 574.057 28.5C572.602 27.4697 570.936 26.697 569.057 26.1818C567.178 25.6364 565.117 25.3636 562.875 25.3636C558.36 25.3636 554.451 26.4545 551.148 28.6364C547.875 30.8182 545.345 34 543.557 38.1818C541.769 42.3333 540.875 47.3788 540.875 53.3182C540.875 59.2879 541.739 64.3788 543.466 68.5909C545.193 72.803 547.693 76.0152 550.966 78.2273C554.239 80.4394 558.208 81.5455 562.875 81.5455C566.996 81.5455 570.481 80.8788 573.33 79.5455C576.208 78.1818 578.39 76.2576 579.875 73.7727C581.36 71.2879 582.102 68.3636 582.102 65L586.284 65.5H563.648V49.0909H603.784V61.4091C603.784 69.7424 602.011 76.8788 598.466 82.8182C594.951 88.7576 590.102 93.3182 583.92 96.5C577.769 99.6818 570.693 101.273 562.693 101.273C553.814 101.273 546.011 99.3485 539.284 95.5C532.557 91.6515 527.314 86.1667 523.557 79.0455C519.799 71.8939 517.92 63.4091 517.92 53.5909C517.92 45.9545 519.057 39.1818 521.33 33.2727C523.602 27.3333 526.769 22.303 530.83 18.1818C534.92 14.0606 539.648 10.9394 545.011 8.81818C550.405 6.69697 556.208 5.63636 562.42 5.63636C567.814 5.63636 572.83 6.40909 577.466 7.95454C582.133 9.5 586.254 11.6818 589.83 14.5C593.436 17.3182 596.36 20.6667 598.602 24.5455C600.845 28.4242 602.239 32.6818 602.784 37.3182H580.011ZM649.682 101.318C642.379 101.318 636.076 99.8788 630.773 97C625.5 94.0909 621.439 89.9545 618.591 84.5909C615.773 79.197 614.364 72.7879 614.364 65.3636C614.364 58.1515 615.788 51.8485 618.636 46.4545C621.485 41.0303 625.5 36.8182 630.682 33.8182C635.864 30.7879 641.97 29.2727 649 29.2727C653.97 29.2727 658.515 30.0455 662.636 31.5909C666.758 33.1364 670.318 35.4242 673.318 38.4545C676.318 41.4848 678.652 45.2273 680.318 49.6818C681.985 54.1061 682.818 59.1818 682.818 64.9091V70.4545H622.136V57.5455H662.136C662.106 55.1818 661.545 53.0758 660.455 51.2273C659.364 49.3788 657.864 47.9394 655.955 46.9091C654.076 45.8485 651.909 45.3182 649.455 45.3182C646.97 45.3182 644.742 45.8788 642.773 47C640.803 48.0909 639.242 49.5909 638.091 51.5C636.939 53.3788 636.333 55.5151 636.273 57.9091V71.0455C636.273 73.8939 636.833 76.3939 637.955 78.5455C639.076 80.6667 640.667 82.3182 642.727 83.5C644.788 84.6818 647.242 85.2727 650.091 85.2727C652.061 85.2727 653.848 85 655.455 84.4545C657.061 83.9091 658.439 83.1061 659.591 82.0455C660.742 80.9848 661.606 79.6818 662.182 78.1364L682.591 78.7273C681.742 83.303 679.879 87.2879 677 90.6818C674.152 94.0455 670.409 96.6667 665.773 98.5455C661.136 100.394 655.773 101.318 649.682 101.318ZM726.761 101.318C719.428 101.318 713.125 99.8182 707.852 96.8182C702.61 93.7879 698.564 89.5758 695.716 84.1818C692.898 78.7576 691.489 72.4697 691.489 65.3182C691.489 58.1364 692.898 51.8485 695.716 46.4545C698.564 41.0303 702.61 36.8182 707.852 33.8182C713.125 30.7879 719.428 29.2727 726.761 29.2727C734.095 29.2727 740.383 30.7879 745.625 33.8182C750.898 36.8182 754.943 41.0303 757.761 46.4545C760.61 51.8485 762.034 58.1364 762.034 65.3182C762.034 72.4697 760.61 78.7576 757.761 84.1818C754.943 89.5758 750.898 93.7879 745.625 96.8182C740.383 99.8182 734.095 101.318 726.761 101.318ZM726.898 84.5455C729.564 84.5455 731.822 83.7273 733.67 82.0909C735.519 80.4545 736.928 78.1818 737.898 75.2727C738.898 72.3636 739.398 69 739.398 65.1818C739.398 61.303 738.898 57.9091 737.898 55C736.928 52.0909 735.519 49.8182 733.67 48.1818C731.822 46.5455 729.564 45.7273 726.898 45.7273C724.14 45.7273 721.807 46.5455 719.898 48.1818C718.019 49.8182 716.58 52.0909 715.58 55C714.61 57.9091 714.125 61.303 714.125 65.1818C714.125 69 714.61 72.3636 715.58 75.2727C716.58 78.1818 718.019 80.4545 719.898 82.0909C721.807 83.7273 724.14 84.5455 726.898 84.5455ZM773.42 126.182V30.1818H795.42V42.1364H796.102C797.011 40.0151 798.299 37.9697 799.966 36C801.663 34.0303 803.814 32.4242 806.42 31.1818C809.057 29.9091 812.208 29.2727 815.875 29.2727C820.723 29.2727 825.254 30.5455 829.466 33.0909C833.708 35.6364 837.133 39.5606 839.739 44.8636C842.345 50.1667 843.648 56.9242 843.648 65.1364C843.648 73.0455 842.39 79.6667 839.875 85C837.39 90.3333 834.027 94.3333 829.784 97C825.572 99.6667 820.89 101 815.739 101C812.223 101 809.178 100.424 806.602 99.2727C804.027 98.1212 801.86 96.6061 800.102 94.7273C798.375 92.8485 797.042 90.8333 796.102 88.6818H795.648V126.182H773.42ZM795.193 65.0909C795.193 68.8485 795.693 72.1212 796.693 74.9091C797.723 77.697 799.193 79.8636 801.102 81.4091C803.042 82.9242 805.36 83.6818 808.057 83.6818C810.784 83.6818 813.102 82.9242 815.011 81.4091C816.92 79.8636 818.36 77.697 819.33 74.9091C820.33 72.1212 820.83 68.8485 820.83 65.0909C820.83 61.3333 820.33 58.0758 819.33 55.3182C818.36 52.5606 816.92 50.4242 815.011 48.9091C813.133 47.3939 810.814 46.6364 808.057 46.6364C805.33 46.6364 803.011 47.3788 801.102 48.8636C799.193 50.3485 797.723 52.4697 796.693 55.2273C795.693 57.9848 795.193 61.2727 795.193 65.0909ZM887.886 101.318C880.553 101.318 874.25 99.8182 868.977 96.8182C863.735 93.7879 859.689 89.5758 856.841 84.1818C854.023 78.7576 852.614 72.4697 852.614 65.3182C852.614 58.1364 854.023 51.8485 856.841 46.4545C859.689 41.0303 863.735 36.8182 868.977 33.8182C874.25 30.7879 880.553 29.2727 887.886 29.2727C895.22 29.2727 901.508 30.7879 906.75 33.8182C912.023 36.8182 916.068 41.0303 918.886 46.4545C921.735 51.8485 923.159 58.1364 923.159 65.3182C923.159 72.4697 921.735 78.7576 918.886 84.1818C916.068 89.5758 912.023 93.7879 906.75 96.8182C901.508 99.8182 895.22 101.318 887.886 101.318ZM888.023 84.5455C890.689 84.5455 892.947 83.7273 894.795 82.0909C896.644 80.4545 898.053 78.1818 899.023 75.2727C900.023 72.3636 900.523 69 900.523 65.1818C900.523 61.303 900.023 57.9091 899.023 55C898.053 52.0909 896.644 49.8182 894.795 48.1818C892.947 46.5455 890.689 45.7273 888.023 45.7273C885.265 45.7273 882.932 46.5455 881.023 48.1818C879.144 49.8182 877.705 52.0909 876.705 55C875.735 57.9091 875.25 61.303 875.25 65.1818C875.25 69 875.735 72.3636 876.705 75.2727C877.705 78.1818 879.144 80.4545 881.023 82.0909C882.932 83.7273 885.265 84.5455 888.023 84.5455ZM956.773 60.1818V100H934.545V30.1818H955.682V43H956.455C958 38.7273 960.636 35.3788 964.364 32.9545C968.091 30.5 972.53 29.2727 977.682 29.2727C982.591 29.2727 986.848 30.3788 990.455 32.5909C994.091 34.7727 996.909 37.8333 998.909 41.7727C1000.94 45.6818 1001.94 50.2576 1001.91 55.5V100H979.682V59.8636C979.712 55.9848 978.727 52.9545 976.727 50.7727C974.758 48.5909 972.015 47.5 968.5 47.5C966.167 47.5 964.106 48.0152 962.318 49.0455C960.561 50.0455 959.197 51.4848 958.227 53.3636C957.288 55.2424 956.803 57.5151 956.773 60.1818ZM1015.67 100V30.1818H1037.9V100H1015.67ZM1026.81 22.0455C1023.69 22.0455 1021 21.0152 1018.76 18.9545C1016.52 16.8636 1015.4 14.3485 1015.4 11.4091C1015.4 8.49999 1016.52 6.01515 1018.76 3.95454C1021 1.86363 1023.69 0.818176 1026.81 0.818176C1029.96 0.818176 1032.64 1.86363 1034.85 3.95454C1037.09 6.01515 1038.22 8.49999 1038.22 11.4091C1038.22 14.3485 1037.09 16.8636 1034.85 18.9545C1032.64 21.0152 1029.96 22.0455 1026.81 22.0455ZM1084.64 101.318C1077.27 101.318 1070.95 99.803 1065.68 96.7727C1060.44 93.7424 1056.41 89.5303 1053.59 84.1364C1050.77 78.7121 1049.36 72.4394 1049.36 65.3182C1049.36 58.1667 1050.77 51.8939 1053.59 46.5C1056.44 41.0758 1060.48 36.8485 1065.73 33.8182C1071 30.7879 1077.29 29.2727 1084.59 29.2727C1091.05 29.2727 1096.67 30.4394 1101.45 32.7727C1106.27 35.1061 1110.03 38.4091 1112.73 42.6818C1115.45 46.9242 1116.89 51.9091 1117.05 57.6364H1096.27C1095.85 54.0606 1094.64 51.2576 1092.64 49.2273C1090.67 47.197 1088.09 46.1818 1084.91 46.1818C1082.33 46.1818 1080.08 46.9091 1078.14 48.3636C1076.2 49.7879 1074.68 51.9091 1073.59 54.7273C1072.53 57.5151 1072 60.9697 1072 65.0909C1072 69.2121 1072.53 72.697 1073.59 75.5455C1074.68 78.3636 1076.2 80.5 1078.14 81.9545C1080.08 83.3788 1082.33 84.0909 1084.91 84.0909C1086.97 84.0909 1088.79 83.6515 1090.36 82.7727C1091.97 81.8939 1093.29 80.6061 1094.32 78.9091C1095.35 77.1818 1096 75.0909 1096.27 72.6364H1117.05C1116.83 78.3939 1115.39 83.4242 1112.73 87.7273C1110.09 92.0303 1106.38 95.3788 1101.59 97.7727C1096.83 100.136 1091.18 101.318 1084.64 101.318ZM1189.38 51.5L1168.97 52.0455C1168.75 50.5909 1168.18 49.303 1167.24 48.1818C1166.3 47.0303 1165.07 46.1364 1163.56 45.5C1162.07 44.8333 1160.34 44.5 1158.38 44.5C1155.8 44.5 1153.6 45.0152 1151.78 46.0455C1150 47.0758 1149.12 48.4697 1149.15 50.2273C1149.12 51.5909 1149.66 52.7727 1150.78 53.7727C1151.94 54.7727 1153.98 55.5758 1156.92 56.1818L1170.38 58.7273C1177.34 60.0606 1182.53 62.2727 1185.92 65.3636C1189.34 68.4545 1191.07 72.5455 1191.1 77.6364C1191.07 82.4242 1189.65 86.5909 1186.83 90.1364C1184.04 93.6818 1180.22 96.4394 1175.38 98.4091C1170.53 100.348 1164.98 101.318 1158.74 101.318C1148.77 101.318 1140.91 99.2727 1135.15 95.1818C1129.42 91.0606 1126.15 85.5455 1125.33 78.6364L1147.28 78.0909C1147.77 80.6364 1149.03 82.5758 1151.06 83.9091C1153.09 85.2424 1155.68 85.9091 1158.83 85.9091C1161.68 85.9091 1164 85.3788 1165.78 84.3182C1167.57 83.2576 1168.48 81.8485 1168.51 80.0909C1168.48 78.5152 1167.78 77.2576 1166.42 76.3182C1165.06 75.3485 1162.92 74.5909 1160.01 74.0455L1147.83 71.7273C1140.83 70.4545 1135.62 68.1061 1132.19 64.6818C1128.77 61.2273 1127.07 56.8333 1127.1 51.5C1127.07 46.8333 1128.31 42.8485 1130.83 39.5455C1133.34 36.2121 1136.92 33.6667 1141.56 31.9091C1146.19 30.1515 1151.66 29.2727 1157.97 29.2727C1167.42 29.2727 1174.88 31.2576 1180.33 35.2273C1185.78 39.1667 1188.8 44.5909 1189.38 51.5Z" fill="#F4F4C4"/>
</svg>
